<svg width="18" height="20" viewBox="0 0 18 20" fill="none" xmlns="http://www.w3.org/2000/svg">
<path d="M9.51223 2.02129L10.2722 1.26129C10.5476 0.965783 10.5395 0.505283 10.2539 0.219671C9.96824 -0.0659415 9.50774 -0.0740665 9.21223 0.201292L7.21223 2.20129C6.91978 2.49411 6.91978 2.96847 7.21223 3.26129L9.21223 5.26129C9.50505 5.55375 9.97941 5.55375 10.2722 5.26129C10.5647 4.96847 10.5647 4.49411 10.2722 4.20129L9.61223 3.54129C12.9796 3.95841 15.6039 6.66112 15.9217 10.0393C16.2395 13.4175 14.1653 16.5622 10.9347 17.6C7.70423 18.6378 4.18665 17.2894 2.47757 14.3581C0.768489 11.4269 1.32777 7.70148 3.82223 5.40129C4.06396 5.11386 4.05582 4.69195 3.80319 4.41405C3.55056 4.13616 3.13133 4.08797 2.82223 4.30129C-0.219585 7.1031 -0.884459 11.6519 1.2282 15.2071C3.34086 18.7623 7.65409 20.353 11.5692 19.0207C15.4842 17.6884 17.9319 13.797 17.4375 9.69113C16.9431 5.58524 13.6417 2.38614 9.52223 2.02129H9.51223Z" fill="#0B1C3F"/>
</svg>
